# xmcd
#
# Track frame offsets:
#	150
#	13330
#	28992
#	42627
#	62110
#	77128
#	96158
#	114269
#	133266
#	152482
#	166256
#	186432
#
# Disc length: 2713 seconds
#
# Revision: 1
# Processed by: cddbd v1.5.1PL0 Copyright (c) Steve Scherf et al.
# Submitted via: audiograbber 1.81.02
#
DISCID=a50a970c
DTITLE=Maroon 5 - Songs About Jane
DYEAR=2002
DGENRE=Pop/Funk
TTITLE0=Harder To Breathe
TTITLE1=This Love
TTITLE2=Shiver
TTITLE3=She Will Be Loved
TTITLE4=Tanqled
TTITLE5=The Sun
TTITLE6=Must Get Out
TTITLE7=Sunday Morning
TTITLE8=Secret
TTITLE9=through With You
TTITLE10=Not Coming home
TTITLE11=Sweetest Goodbay
EXTD=
EXTT0=
EXTT1=
EXTT2=
EXTT3=
EXTT4=
EXTT5=
EXTT6=
EXTT7=
EXTT8=
EXTT9=
EXTT10=
EXTT11=
PLAYORDER=
